<svg fill="none" viewBox="0 0 24 24" height="24" width="24" xmlns="http://www.w3.org/2000/svg">
<path xmlns="http://www.w3.org/2000/svg" d="M4 3C2.89543 3 2 3.89543 2 5V10V19C2 20.1046 2.89543 21 4 21H20C21.1046 21 22 20.1046 22 19V10V5C22 3.89543 21.1046 3 20 3H4ZM20 5V9H4V5H20ZM4 11H20V19H4V11ZM10 7C10 7.55228 9.55228 8 9 8C8.44772 8 8 7.55228 8 7C8 6.44772 8.44772 6 9 6C9.55228 6 10 6.44772 10 7ZM6 8C6.55228 8 7 7.55228 7 7C7 6.44772 6.55228 6 6 6C5.44772 6 5 6.44772 5 7C5 7.55228 5.44772 8 6 8Z" fill="#0D0D0D" data-darkreader-inline-fill="" style="--darkreader-inline-fill:#e0ddd9;"></path>
</svg>